{"glyphs":{"0":{"ha":892,"x_min":67,"x_max":822,"o":"m 443 1056 q 822 486 821 1053 q 447 -83 818 -78 q 67 486 71 -74 q 443 1056 75 1040 m 446 17 q 692 486 693 11 q 440 957 694 964 q 196 486 199 951 q 446 17 194 14 z "},"1":{"ha":703,"x_min":43,"x_max":494,"o":"m 372 -68 l 372 844 q 43 624 274 728 l 43 735 q 403 1053 319 865 l 494 1053 l 494 -68 l 372 -68 z "},"2":{"ha":871,"x_min":50,"x_max":815,"o":"m 197 40 l 793 40 l 793 -65 l 50 -65 l 50 17 q 403 415 165 243 q 661 742 683 615 q 425 954 656 951 q 182 735 233 951 l 67 776 q 451 1057 153 1060 q 790 757 769 1044 q 514 367 815 567 q 197 40 301 218 z "},"3":{"ha":881,"x_min":53,"x_max":814,"o":"m 53 214 l 178 243 q 432 18 214 18 q 685 257 681 22 q 408 460 681 458 q 307 460 335 460 l 307 558 q 375 558 338 558 q 644 763 643 560 q 436 958 643 957 q 199 746 232 961 l 76 775 q 440 1057 142 1054 q 775 769 760 1047 q 567 518 768 572 l 567 517 q 814 246 800 469 q 435 -82 797 -68 q 53 214 118 -83 z "},"4":{"ha":893,"x_min":21,"x_max":822,"o":"m 675 296 l 822 296 l 822 200 l 675 200 l 675 -68 l 561 -68 l 561 200 l 21 200 l 21 274 l 568 1053 l 675 1053 l 675 296 m 150 297 l 356 296 l 561 296 l 561 583 l 561 772 q 564 901 563 883 q 560 893 563 897 q 539 856 547 868 q 499 796 528 839 q 450 726 486 778 q 354 590 388 639 q 313 531 333 560 q 210 383 275 476 q 150 297 158 310 z "},"5":{"ha":885,"x_min":61,"x_max":819,"o":"m 61 219 l 181 247 q 439 18 214 18 q 696 296 683 31 q 440 567 688 558 q 199 438 276 565 l 106 447 l 163 1035 l 761 1035 l 761 929 l 265 929 l 226 563 q 472 664 319 664 q 819 307 803 649 q 447 -82 807 -69 q 61 219 128 -82 z "},"6":{"ha":889,"x_min":57,"x_max":819,"o":"m 799 803 l 682 774 q 463 958 633 960 q 181 485 181 957 q 485 656 271 653 q 819 299 796 633 q 458 -83 799 -65 q 60 458 57 -89 q 467 1057 63 1053 q 799 803 728 1050 m 453 15 q 696 288 685 25 q 457 557 686 549 q 186 322 206 543 q 453 15 199 29 z "},"7":{"ha":882,"x_min":71,"x_max":813,"o":"m 389 -68 l 256 -68 q 668 929 314 404 l 71 929 l 71 1033 l 813 1033 l 813 949 q 389 -68 439 435 z "},"8":{"ha":903,"x_min":65,"x_max":836,"o":"m 290 513 l 290 514 q 108 761 118 575 q 450 1057 132 1040 q 794 760 765 1038 q 608 514 785 571 l 608 513 q 836 226 824 449 q 444 -85 825 -76 q 65 231 82 -71 q 290 513 82 450 m 451 10 q 708 225 697 18 q 446 464 700 444 q 193 232 203 449 q 451 10 204 19 m 450 963 q 236 763 246 954 q 451 557 239 571 q 664 761 657 574 q 450 963 654 954 z "},"9":{"ha":892,"x_min":64,"x_max":828,"o":"m 85 171 l 200 200 q 421 14 249 13 q 703 488 700 13 q 397 318 610 319 q 64 675 83 339 q 426 1057 86 1038 q 824 518 828 1063 q 414 -83 824 -82 q 85 171 151 -76 m 697 650 q 433 958 686 947 q 189 686 199 950 q 426 415 197 424 q 697 650 676 429 z "},"\"":{"ha":519,"x_min":72,"x_max":446,"o":"m 204 1054 l 182 660 l 94 660 l 72 1054 l 204 1054 m 446 1054 l 424 660 l 336 660 l 314 1054 l 446 1054 z "},"%":{"ha":1418,"x_min":67,"x_max":1301,"o":"m 317 1064 q 563 769 554 1056 q 310 483 557 490 q 67 769 76 496 q 317 1064 75 1054 m 160 771 q 314 564 167 575 q 469 775 467 569 q 317 982 467 979 q 160 771 161 981 m 1056 478 q 1301 183 1293 468 q 1049 -103 1294 -94 q 806 183 815 -90 q 1056 478 814 468 m 897 185 q 1053 -22 904 -11 q 1208 189 1206 -17 q 1056 396 1206 393 q 897 185 899 393 m 940 1061 l 1047 1061 l 429 -108 l 321 -108 l 940 1061 z "},",":{"ha":428,"x_min":100,"x_max":304,"o":"m 144 -332 l 100 -285 q 225 -61 228 -197 l 132 -61 l 132 113 l 299 113 q 299 -36 299 72 q 144 -332 304 -235 z "},".":{"ha":438,"x_min":135,"x_max":301,"o":"m 301 111 l 301 -62 l 135 -62 l 135 111 l 301 111 z "},"/":{"ha":422,"x_min":0,"x_max":421,"o":"m 0 -107 l 325 1071 l 421 1071 l 96 -107 l 0 -107 z "},";":{"ha":438,"x_min":104,"x_max":307,"o":"m 301 728 l 301 554 l 136 554 l 136 728 l 301 728 m 147 -321 l 104 -272 q 228 -49 233 -185 l 135 -49 l 135 125 l 301 125 q 301 -24 301 85 q 147 -321 307 -224 z "},">":{"ha":929,"x_min":83,"x_max":844,"o":"m 83 849 l 83 974 l 844 533 l 844 439 l 83 0 l 83 124 l 735 488 l 83 849 z "},"A":{"ha":1058,"x_min":0,"x_max":1057,"o":"m 597 1042 l 1057 -67 l 918 -67 l 786 265 l 268 265 l 136 -67 l 0 -67 l 454 1042 l 597 1042 m 529 925 l 525 925 l 306 368 l 751 368 l 529 925 z "},"B":{"ha":1060,"x_min":115,"x_max":972,"o":"m 594 -67 l 115 -67 l 115 1042 l 567 1042 q 925 776 899 1026 q 696 519 922 563 l 696 517 q 972 246 960 469 q 594 -67 965 -62 m 556 460 l 240 460 l 240 38 l 571 38 q 839 260 840 36 q 556 460 822 453 m 538 940 l 240 940 l 240 561 l 538 561 q 792 763 786 564 q 538 940 785 938 z "},"C":{"ha":1125,"x_min":78,"x_max":1060,"o":"m 1040 735 l 911 701 q 585 946 828 936 q 213 488 236 917 q 579 25 232 56 q 926 328 863 26 l 1060 289 q 582 -85 972 -79 q 78 481 104 -53 q 590 1056 104 1028 q 1040 735 921 1044 z "},"D":{"ha":1121,"x_min":115,"x_max":1046,"o":"m 497 -67 l 115 -67 l 115 1040 l 500 1040 q 1036 493 1021 1026 q 497 -67 1046 -78 m 494 933 l 243 933 l 243 39 l 492 39 q 906 490 907 38 q 494 933 893 919 z "},"E":{"ha":1039,"x_min":121,"x_max":951,"o":"m 951 -67 l 121 -67 l 121 1040 l 925 1040 l 925 933 l 249 933 l 249 560 l 886 560 l 886 454 l 249 454 l 249 40 l 951 40 l 951 -67 z "},"F":{"ha":953,"x_min":121,"x_max":876,"o":"m 876 933 l 249 933 l 249 553 l 799 553 l 799 447 l 249 447 l 249 -67 l 121 -67 l 121 1040 l 876 1040 l 876 933 z "},"G":{"ha":1206,"x_min":82,"x_max":1103,"o":"m 1103 528 l 1103 125 q 628 -83 975 -81 q 82 488 107 -56 q 607 1056 106 1029 q 1099 747 981 1050 l 971 707 q 603 946 888 944 q 217 483 240 918 q 622 25 239 56 q 983 171 878 29 l 983 422 l 611 422 l 611 528 l 1103 528 z "},"H":{"ha":1139,"x_min":124,"x_max":1014,"o":"m 1014 -67 l 888 -67 l 888 450 l 250 450 l 250 -67 l 124 -67 l 124 1040 l 250 1040 l 250 560 l 888 560 l 888 1040 l 1014 1040 l 1014 -67 z "},"I":{"ha":393,"x_min":132,"x_max":258,"o":"m 132 -67 l 132 1040 l 258 1040 l 258 -67 l 132 -67 z "},"J":{"ha":829,"x_min":47,"x_max":718,"o":"m 585 1040 l 711 1040 l 711 292 q 383 -85 718 -93 q 47 254 78 -89 l 171 285 q 383 26 175 18 q 585 289 590 18 l 585 1040 z "},"K":{"ha":1063,"x_min":114,"x_max":1060,"o":"m 1060 -67 l 893 -67 l 483 497 l 242 260 l 242 -67 l 114 -67 l 114 1040 l 242 1040 l 242 417 l 863 1039 l 1031 1039 l 564 578 l 1060 -67 z "},"L":{"ha":893,"x_min":113,"x_max":836,"o":"m 836 -68 l 113 -68 l 113 1039 l 239 1039 l 239 39 l 836 39 l 836 -68 z "},"M":{"ha":1465,"x_min":90,"x_max":1261,"o":"m 617 -65 l 225 939 l 217 939 l 217 -68 l 90 -68 l 90 1040 l 308 1040 l 675 79 l 681 79 l 1040 1040 l 1261 1040 l 1261 -68 l 1133 -68 l 1133 940 l 1125 940 q 739 -65 1101 868 l 617 -65 z "},"N":{"ha":1147,"x_min":125,"x_max":1021,"o":"m 125 1039 l 293 1039 l 892 65 l 897 67 l 897 1039 l 1021 1039 l 1021 -68 l 856 -68 l 251 910 l 249 910 l 249 -69 l 125 -69 l 125 1039 z "},"O":{"ha":1213,"x_min":72,"x_max":1139,"o":"m 611 1054 q 1139 483 1103 1019 q 601 -86 1115 -61 q 72 481 99 -57 q 611 1054 97 1028 m 596 24 q 999 482 981 44 q 603 944 978 917 q 204 483 229 913 q 596 24 224 51 z "},"P":{"ha":1038,"x_min":119,"x_max":968,"o":"m 575 371 l 247 371 l 247 -68 l 119 -68 l 119 1039 l 588 1039 q 968 714 942 1021 q 575 371 961 376 m 554 935 l 247 935 l 247 475 l 554 475 q 835 714 831 478 q 554 935 822 926 z "},"Q":{"ha":1203,"x_min":63,"x_max":1129,"o":"m 735 -62 l 990 -312 l 849 -357 l 601 -76 q 63 485 83 -51 q 601 1054 86 1031 q 1129 488 1094 1018 q 735 -62 1117 44 m 194 486 q 586 31 213 56 q 989 486 976 47 q 593 946 968 915 q 194 486 217 915 z "},"R":{"ha":1113,"x_min":124,"x_max":1090,"o":"m 1090 -67 l 924 -67 l 553 418 l 250 418 l 250 -68 l 124 -68 l 124 1039 l 631 1039 q 1011 732 996 1029 q 692 424 1013 449 l 1090 -67 m 250 935 l 250 522 l 597 522 q 879 732 885 518 q 597 935 881 936 l 250 935 z "},"S":{"ha":1040,"x_min":69,"x_max":974,"o":"m 69 267 l 199 301 q 539 22 242 18 q 825 235 808 29 q 549 447 842 382 q 521 454 540 449 q 478 465 492 463 q 111 761 94 536 q 501 1054 132 1042 q 931 758 871 1054 l 799 726 q 510 949 758 946 q 243 761 265 939 q 539 565 226 624 q 596 550 556 563 q 624 543 615 546 q 960 233 974 458 q 546 -85 938 -71 q 69 267 140 -93 z "},"T":{"ha":969,"x_min":36,"x_max":933,"o":"m 933 933 l 549 933 l 549 -67 l 421 -67 l 421 933 l 36 933 l 36 1039 l 933 1039 l 933 933 z "},"U":{"ha":1144,"x_min":121,"x_max":1024,"o":"m 122 404 l 122 1040 l 250 1040 l 250 404 q 568 26 247 22 q 894 406 896 25 l 894 1040 l 1021 1040 l 1021 406 q 565 -85 1024 -87 q 122 404 121 -86 z "},"V":{"ha":1068,"x_min":13,"x_max":1054,"o":"m 1054 1040 l 600 -68 l 464 -68 l 13 1040 l 150 1040 q 533 46 525 69 l 536 46 q 914 1040 544 69 l 1054 1040 z "},"W":{"ha":1456,"x_min":15,"x_max":1439,"o":"m 1303 1036 l 1439 1036 l 1128 -72 l 996 -72 q 760 806 783 717 q 733 929 744 867 l 731 929 q 703 811 722 883 q 454 -72 681 731 l 317 -72 l 15 1036 l 150 1036 q 368 156 344 253 q 389 56 374 132 l 394 56 q 425 183 418 161 q 658 1036 458 308 l 799 1036 q 1033 158 1014 232 q 1058 46 1049 103 l 1061 46 q 1083 158 1072 111 q 1303 1036 1103 232 z "},"X":{"ha":1063,"x_min":11,"x_max":1051,"o":"m 1051 -67 l 890 -67 l 533 433 l 167 -67 l 11 -67 l 453 503 l 58 1040 l 210 1040 l 535 567 l 861 1040 l 1015 1040 l 615 503 l 1051 -67 z "},"Y":{"ha":1057,"x_min":8,"x_max":1047,"o":"m 8 1040 l 153 1040 q 478 569 467 586 q 524 497 519 507 l 525 499 q 543 525 526 501 q 572 568 569 563 q 901 1040 586 590 l 1047 1040 l 583 403 l 583 -67 l 458 -67 l 458 401 l 8 1040 z "},"Z":{"ha":971,"x_min":31,"x_max":932,"o":"m 932 -67 l 31 -67 l 31 19 l 744 933 l 93 933 l 93 1040 l 910 1040 l 910 949 l 192 39 l 932 39 l 932 -67 z "},"[":{"ha":456,"x_min":104,"x_max":435,"o":"m 435 -272 l 104 -272 l 104 1140 l 433 1140 l 433 1058 l 208 1058 l 208 -190 l 435 -190 l 435 -272 z "},"]":{"ha":454,"x_min":21,"x_max":351,"o":"m 21 -190 l 247 -190 l 247 1058 l 22 1058 l 22 1140 l 351 1140 l 351 -272 l 21 -272 l 21 -190 z "},"‘":{"ha":1389,"x_min":939,"x_max":1143,"o":"m 1111 900 l 1111 726 l 944 726 q 944 875 944 767 q 1099 1169 939 1074 l 1143 1124 q 1018 900 1015 1036 l 1111 900 z "},"’":{"ha":1389,"x_min":244,"x_max":449,"o":"m 289 717 l 244 765 q 369 989 372 853 l 276 989 l 276 1163 l 443 1163 q 443 1014 443 1122 q 289 717 449 815 z "},"“":{"ha":1389,"x_min":696,"x_max":1142,"o":"m 1018 903 l 1111 903 l 1111 729 l 944 729 q 944 878 944 769 q 1099 1172 939 1078 l 1142 1126 q 1018 903 1013 1039 m 856 1172 l 899 1126 q 775 903 771 1038 l 868 903 l 868 729 l 701 729 q 701 878 701 769 q 856 1172 696 1078 z "},"”":{"ha":1389,"x_min":246,"x_max":692,"o":"m 443 1165 l 443 1017 q 289 719 449 818 l 246 768 q 369 992 372 856 l 276 992 l 276 1165 l 443 1165 m 686 1165 l 686 1017 q 532 719 692 817 l 489 768 q 613 992 615 856 l 519 992 l 519 1165 l 686 1165 z "},"《":{"ha":1389,"x_min":429,"x_max":1028,"o":"m 810 1171 l 526 486 l 813 -197 l 714 -197 l 429 486 l 713 1171 l 810 1171 m 1026 1171 l 742 486 l 1028 -197 l 929 -197 l 646 486 l 928 1171 l 1026 1171 z "},"》":{"ha":1389,"x_min":357,"x_max":956,"o":"m 672 1171 l 956 486 l 671 -197 l 572 -197 l 858 486 l 575 1171 l 672 1171 m 457 1171 l 739 486 l 456 -197 l 357 -197 l 643 486 l 358 1171 l 457 1171 z "},"仓":{"ha":1389,"x_min":33,"x_max":1347,"o":"m 1283 564 q 701 1004 890 754 q 293 657 546 815 l 1069 657 q 1056 358 1067 519 q 857 179 1050 175 q 667 178 794 178 q 646 286 661 226 q 821 281 717 281 q 946 378 946 275 q 956 557 954 478 l 392 557 l 392 99 q 524 -21 385 -26 l 989 -21 q 1144 86 1125 -25 q 1172 254 1161 157 q 1281 222 1240 231 q 1242 28 1263 107 q 1004 -125 1204 -128 l 489 -125 q 279 78 275 -129 l 279 647 q 97 543 193 596 q 33 646 76 581 q 669 1150 465 851 l 797 1133 l 764 1085 q 1347 669 975 819 q 1335 650 1343 663 q 1283 564 1300 594 z "},"常":{"ha":1389,"x_min":85,"x_max":1303,"o":"m 272 418 l 272 719 l 1115 719 l 1115 418 l 749 418 l 749 299 l 1235 299 l 1235 76 q 1079 -76 1240 -75 q 928 -79 1035 -79 q 903 22 915 -18 q 1038 19 979 19 q 1125 94 1132 14 l 1125 208 l 749 208 l 749 -171 l 636 -171 l 636 208 l 265 208 l 265 -75 l 157 -75 l 157 299 l 636 299 l 636 418 l 272 418 m 85 683 l 85 918 l 382 918 q 251 1028 346 950 q 204 1067 219 1054 l 300 1110 q 489 956 378 1049 l 422 918 l 639 918 l 639 1139 l 750 1139 l 750 918 l 956 918 l 894 957 q 1086 1107 1031 1057 l 1183 1061 q 1035 944 1133 1018 q 1000 918 1013 926 l 1303 918 l 1303 683 l 1193 683 l 1193 829 l 194 829 l 194 683 l 85 683 m 382 638 l 382 500 l 1007 500 l 1007 638 l 382 638 z "},"接":{"ha":1389,"x_min":28,"x_max":1344,"o":"m 450 319 l 450 410 l 694 410 q 771 540 736 475 l 882 518 q 815 410 849 463 l 1340 410 l 1340 319 l 1172 319 q 1007 69 1106 163 q 1332 -68 1164 6 l 1271 -160 q 919 0 1074 -67 q 435 -171 761 -106 q 379 -71 410 -119 q 801 50 668 -18 l 526 168 q 636 319 583 242 l 450 319 m 49 786 l 49 883 l 207 883 l 207 1139 l 311 1139 l 311 883 l 436 883 l 436 786 l 311 786 l 311 508 l 440 543 q 447 436 442 486 l 311 400 l 311 6 q 175 -154 317 -153 q 49 -156 132 -156 q 28 -47 42 -108 q 140 -50 94 -51 q 207 24 210 -53 l 207 372 q 106 343 174 364 q 46 326 65 332 l 33 442 q 207 482 126 461 l 207 786 l 49 786 m 451 581 l 451 669 l 728 669 q 608 838 682 735 l 701 876 q 831 699 786 763 l 761 669 l 963 669 q 979 694 968 678 q 1097 876 1061 814 l 1199 839 q 1076 669 1154 774 l 1344 669 l 1344 581 l 451 581 m 493 893 l 493 983 l 878 983 q 811 1117 856 1031 l 922 1142 q 986 1007 947 1094 q 993 993 990 997 l 957 983 l 1300 983 l 1300 893 l 493 893 m 669 203 q 714 186 683 197 q 899 113 782 160 q 1057 319 996 189 l 754 319 q 669 203 708 253 z "},"故":{"ha":1389,"x_min":36,"x_max":1354,"o":"m 1281 -167 q 981 88 1085 -36 q 664 -179 865 -47 q 588 -82 629 -129 q 911 179 804 53 q 757 626 804 342 q 672 486 718 554 q 603 575 650 518 q 856 1146 764 807 l 965 1131 q 886 899 926 997 l 1346 899 l 1346 796 l 1235 796 q 1047 176 1192 386 q 1354 -62 1151 50 q 1281 -167 1304 -126 m 36 775 l 36 876 l 303 876 l 303 1139 l 408 1139 l 408 876 l 663 876 l 663 775 l 408 775 l 408 501 l 621 501 l 621 -28 l 194 -28 l 194 -115 l 90 -115 l 90 501 l 303 501 l 303 775 l 36 775 m 194 406 l 194 68 l 517 68 l 517 406 l 194 406 m 979 272 q 1129 796 1096 453 l 843 796 l 833 776 q 979 272 874 447 z "},"未":{"ha":1389,"x_min":40,"x_max":1347,"o":"m 131 817 l 131 918 l 638 918 l 638 1139 l 749 1139 l 749 918 l 1261 918 l 1261 817 l 749 817 l 749 582 l 1335 582 l 1335 479 l 811 479 q 1347 43 1003 200 l 1276 -58 q 749 425 918 135 l 749 -169 l 638 -169 l 638 424 q 108 -81 449 108 q 40 18 68 -19 q 575 479 386 199 l 51 479 l 51 582 l 638 582 l 638 817 l 131 817 z "},"正":{"ha":1389,"x_min":40,"x_max":1346,"o":"m 103 928 l 103 1033 l 1297 1033 l 1297 928 l 821 928 l 821 551 l 1251 551 l 1251 449 l 821 449 l 821 18 l 1346 18 l 1346 -87 l 40 -87 l 40 18 l 249 18 l 249 725 l 363 725 l 363 18 l 706 18 l 706 928 l 103 928 z "},"源":{"ha":1389,"x_min":36,"x_max":1363,"o":"m 642 282 l 642 804 l 833 804 l 875 961 l 526 961 l 526 597 q 356 -171 540 111 q 265 -99 317 -136 q 390 188 358 42 q 424 596 425 332 l 424 1056 l 1347 1056 l 1347 961 l 986 961 l 938 804 l 1261 804 l 1261 282 l 1003 282 l 1003 -14 q 874 -156 1007 -153 q 819 -157 850 -157 q 742 -157 794 -157 q 725 -78 738 -132 q 721 -61 722 -67 q 838 -65 779 -65 q 903 4 904 -67 l 903 282 l 642 282 m 742 504 l 742 371 l 1163 371 l 1163 504 l 742 504 m 742 715 l 742 583 l 1163 583 l 1163 715 l 742 715 m 163 -154 l 60 -122 q 179 382 126 121 q 278 347 219 365 q 163 -154 225 131 m 1281 -104 q 1075 154 1163 50 l 1151 206 q 1363 -44 1263 81 l 1281 -104 m 586 -117 q 514 -54 549 -82 q 715 204 629 67 l 797 156 q 586 -117 701 18 m 278 860 q 82 1053 164 976 l 163 1117 q 363 933 265 1028 l 278 860 m 235 508 q 36 696 150 594 l 113 763 q 318 583 215 678 l 235 508 z "},"电":{"ha":1389,"x_min":101,"x_max":1344,"o":"m 789 -126 q 589 71 582 -133 l 589 214 l 211 214 l 211 118 l 101 118 l 101 965 l 589 965 l 589 1140 l 700 1140 l 700 965 l 1189 965 l 1189 214 l 700 214 l 700 89 q 826 -25 693 -31 l 1071 -25 q 1208 68 1190 -29 q 1235 226 1225 136 q 1344 192 1292 207 q 1310 7 1328 79 q 1096 -126 1282 -132 l 789 -126 m 700 315 l 1079 315 l 1079 542 l 700 542 l 700 315 m 211 542 l 211 315 l 589 315 l 589 542 l 211 542 m 1079 864 l 700 864 l 700 640 l 1079 640 l 1079 864 m 211 864 l 211 640 l 589 640 l 589 864 l 211 864 z "},"空":{"ha":1389,"x_min":47,"x_max":1340,"o":"m 225 339 l 225 439 l 1161 439 l 1161 339 l 751 339 l 751 -1 l 1304 -1 l 1304 -104 l 82 -104 l 82 -1 l 638 -1 l 638 339 l 225 339 m 88 711 l 88 975 l 664 975 q 608 1125 638 1053 l 725 1147 q 786 985 754 1076 l 746 975 l 1300 975 l 1300 711 l 1189 711 l 1189 874 l 197 874 l 197 711 l 88 711 m 106 406 q 47 500 89 438 q 518 790 283 613 l 590 706 q 106 406 347 533 m 1279 407 q 803 707 1081 540 l 865 789 q 1340 503 1132 635 l 1279 407 z "},"连":{"ha":1389,"x_min":33,"x_max":1351,"o":"m 432 871 l 432 967 l 660 967 q 731 1146 706 1074 l 849 1126 q 778 967 815 1049 l 1314 967 l 1314 871 l 732 871 q 590 590 656 713 l 847 590 l 847 799 l 956 799 l 956 590 l 1274 590 l 1274 496 l 956 496 l 956 308 l 1335 308 l 1335 213 l 956 213 l 956 39 l 847 39 l 847 213 l 399 213 l 399 308 l 847 308 l 847 496 l 469 496 l 469 600 q 615 871 546 725 l 432 871 m 85 -150 l 33 -36 q 193 113 110 42 l 193 564 l 44 564 l 44 668 l 301 668 l 301 119 q 624 -31 403 -32 q 1351 -29 807 -35 q 1314 -135 1324 -97 q 1119 -133 1260 -135 q 604 -129 753 -132 q 247 25 369 -132 q 85 -150 164 -54 m 268 821 q 106 1064 183 956 l 194 1115 q 365 879 286 996 l 268 821 z "},"障":{"ha":1389,"x_min":94,"x_max":1354,"o":"m 453 1 l 453 88 l 851 88 l 851 193 l 558 193 l 558 617 l 1253 617 l 1253 193 l 954 193 l 954 88 l 1354 88 l 1354 1 l 954 1 l 954 -171 l 851 -171 l 851 1 l 453 1 m 94 -171 l 94 1072 l 458 1072 l 458 974 l 353 606 q 464 286 465 463 q 331 90 469 107 q 243 82 293 83 q 214 185 235 128 q 275 186 235 183 q 292 186 289 186 q 369 297 372 189 q 260 593 374 446 l 367 981 l 192 981 l 192 -171 l 94 -171 m 519 935 l 519 1019 l 867 1019 q 857 1044 864 1028 q 822 1136 835 1108 l 932 1153 q 978 1022 947 1113 l 965 1019 l 1296 1019 l 1296 935 l 1090 935 l 1186 910 l 1099 788 l 1347 788 l 1347 704 l 469 704 l 469 788 l 719 788 q 710 800 717 792 q 631 907 660 869 l 692 935 l 519 935 m 654 371 l 654 271 l 1156 271 l 1156 371 l 654 371 m 654 539 l 654 442 l 1156 442 l 1156 539 l 654 539 m 824 804 l 785 788 l 989 788 q 1083 935 1039 860 l 726 935 q 824 804 769 881 z "}}}
